<?xml version="1.0" standalone="no"?>
<!DOCTYPE svg PUBLIC "-//W3C//DTD SVG 20010904//EN"
 "http://www.w3.org/TR/2001/REC-SVG-20010904/DTD/svg10.dtd">
<svg version="1.0" xmlns="http://www.w3.org/2000/svg"
 width="720.000000pt" height="720.000000pt" viewBox="0 0 720.000000 720.000000"
 preserveAspectRatio="xMidYMid meet">

<g transform="translate(0.000000,720.000000) scale(0.100000,-0.100000)"
fill="#000000" stroke="none">
<path d="M3462 6059 c-88 -44 -127 -160 -84 -246 25 -48 73 -91 110 -99 15 -3
33 -7 40 -10 7 -2 36 1 63 7 134 29 190 195 102 299 -57 69 -151 88 -231 49z
m169 -80 c6 -12 4 -21 -6 -29 -8 -7 -15 -21 -15 -32 0 -11 -15 -35 -33 -53
-19 -19 -38 -49 -43 -67 -5 -18 -17 -34 -26 -36 -14 -3 -16 6 -14 55 2 32 8
75 15 95 7 20 11 43 10 50 -4 33 3 49 24 57 25 10 72 -12 88 -40z"/>
<path d="M3537 6003 c-15 -15 -6 -52 14 -58 28 -9 53 16 44 44 -6 20 -43 29
-58 14z"/>
<path d="M3553 5928 c-25 -8 -33 -18 -42 -51 -5 -23 -8 -43 -6 -46 11 -10 35
24 41 57 6 30 8 33 14 17 4 -11 3 -26 -2 -32 -13 -17 4 -17 20 -1 15 15 16 32
1 22 -6 -3 -3 5 6 20 19 28 16 29 -32 14z"/>
<path d="M3038 5599 c-25 -14 -24 -65 1 -79 19 -10 51 -4 51 9 0 4 -12 7 -27
6 -31 0 -43 26 -23 50 9 11 17 12 31 4 11 -5 19 -6 19 0 0 5 -7 12 -16 15 -19
7 -15 8 -36 -5z"/>
<path d="M3172 5598 c-15 -15 -16 -78 -2 -78 9 0 15 31 11 54 -1 5 3 12 10 16
6 5 7 10 2 13 -6 4 -15 1 -21 -5z"/>
<path d="M3564 5560 c1 -22 4 -40 9 -40 4 0 7 18 7 40 0 22 -4 40 -8 40 -5 0
-8 -18 -8 -40z"/>
<path d="M4000 5560 c0 -22 5 -40 10 -40 6 0 10 18 10 40 0 22 -4 40 -10 40
-5 0 -10 -18 -10 -40z"/>
<path d="M3283 5555 c0 -14 3 -28 8 -31 5 -3 9 4 9 15 0 12 0 24 1 28 0 4 -4
9 -9 11 -5 1 -9 -9 -9 -23z"/>
<path d="M3331 5567 c-22 -22 -2 -61 25 -50 8 3 14 15 14 28 0 26 -22 39 -39
22z m25 -33 c-5 -13 -10 -14 -18 -6 -6 6 -8 18 -4 28 5 13 10 14 18 6 6 -6 8
-18 4 -28z"/>
<path d="M3485 5570 c-3 -5 -1 -10 4 -10 6 0 10 -3 10 -7 -3 -18 2 -33 10 -33
10 0 2 48 -10 55 -4 3 -10 1 -14 -5z"/>
<path d="M3601 5567 c-15 -15 -14 -32 3 -46 17 -14 48 12 40 34 -8 19 -29 26
-43 12z m25 -34 c-7 -17 -8 -17 -17 0 -12 21 -2 44 13 29 6 -6 8 -19 4 -29z"/>
<path d="M3883 5573 c-17 -6 -17 -38 0 -52 15 -12 37 3 37 25 0 16 -22 32 -37
27z m23 -39 c-5 -13 -10 -14 -18 -6 -6 6 -8 18 -4 28 5 13 10 14 18 6 6 -6 8
-18 4 -28z"/>
<path d="M4042 5568 c-15 -15 -15 -31 -1 -45 15 -15 39 -5 39 17 0 26 -23 43
-38 28z m24 -34 c-5 -13 -10 -14 -18 -6 -6 6 -8 18 -4 28 5 13 10 14 18 6 6
-6 8 -18 4 -28z"/>
<path d="M3118 5563 c6 -2 12 -13 12 -24 0 -10 4 -19 9 -19 4 0 6 11 3 25 -2
15 -11 25 -21 24 -10 0 -11 -2 -3 -6z"/>
<path d="M3201 5548 c-1 -23 3 -28 22 -27 15 1 17 3 5 6 -9 2 -19 14 -21 26
-4 18 -5 17 -6 -5z"/>
<path d="M3220 5560 c0 -5 5 -10 10 -10 6 0 10 5 10 10 0 6 -4 10 -10 10 -5 0
-10 -4 -10 -10z"/>
<path d="M3385 5545 c0 -14 3 -25 8 -25 4 0 7 9 7 19 0 11 6 22 13 24 6 3 3 6
-8 6 -15 1 -20 -5 -20 -24z"/>
<path d="M3430 5545 c0 -14 5 -25 10 -25 6 0 10 9 10 19 0 11 6 22 13 24 6 3
2 6 -10 6 -18 1 -23 -5 -23 -24z"/>
<path d="M3527 5556 c-3 -8 0 -22 7 -32 12 -16 13 -14 12 14 -1 33 -10 42 -19
18z"/>
<path d="M3686 5558 c-11 -23 1 -38 27 -37 16 1 17 3 5 6 -9 2 -19 14 -21 26
-3 19 -5 20 -11 5z"/>
<path d="M3710 5560 c0 -5 5 -10 10 -10 6 0 10 5 10 10 0 6 -4 10 -10 10 -5 0
-10 -4 -10 -10z"/>
<path d="M3770 5545 c0 -14 5 -25 10 -25 6 0 10 7 8 16 -2 10 2 19 9 21 6 2
13 -6 16 -19 l4 -23 2 23 c1 27 21 30 21 2 0 -11 4 -20 9 -20 4 0 6 11 3 25
-4 22 -10 25 -43 25 -35 0 -39 -3 -39 -25z"/>
<path d="M3935 5545 c0 -14 3 -25 8 -25 4 0 7 11 7 25 0 14 -3 25 -7 25 -5 0
-8 -11 -8 -25z"/>
<path d="M3963 5554 c-3 -8 2 -23 11 -32 9 -10 16 -12 16 -5 0 7 -4 14 -10 18
-5 3 -7 12 -3 20 3 8 2 15 -1 15 -4 0 -9 -7 -13 -16z"/>
<path d="M3100 5531 c0 -6 5 -13 10 -16 6 -3 10 1 10 9 0 9 -4 16 -10 16 -5 0
-10 -4 -10 -9z"/>
<path d="M3470 5530 c0 -5 5 -10 10 -10 6 0 10 5 10 10 0 6 -4 10 -10 10 -5 0
-10 -4 -10 -10z"/>
<path d="M3224 5445 c-7 -17 4 -37 17 -30 12 8 12 45 -1 45 -6 0 -13 -7 -16
-15z m13 -17 c-3 -8 -6 -5 -6 6 -1 11 2 17 5 13 3 -3 4 -12 1 -19z"/>
<path d="M3262 5420 c-31 -54 -28 -65 4 -12 14 24 24 45 22 47 -2 2 -13 -14
-26 -35z"/>
<path d="M3362 5448 c-15 -15 -15 -51 0 -66 15 -15 55 -16 63 -2 5 8 11 7 21
-1 17 -14 44 -5 44 14 0 8 -7 20 -16 28 -13 10 -19 8 -40 -14 -29 -32 -49 -34
-63 -8 -7 13 -6 24 4 37 12 16 17 17 34 6 17 -10 21 -10 21 1 0 17 -52 21 -68
5z m116 -51 c2 -10 -3 -17 -12 -17 -10 0 -16 9 -16 21 0 24 23 21 28 -4z"/>
<path d="M3514 5448 c-10 -16 -12 -78 -2 -78 7 0 13 42 9 64 -1 5 4 13 11 17
9 6 9 9 1 9 -6 0 -15 -5 -19 -12z"/>
<path d="M3555 5449 c-11 -18 -11 -79 0 -79 6 0 10 17 9 37 -1 21 3 41 9 45 9
6 9 8 0 8 -6 0 -15 -5 -18 -11z"/>
<path d="M3870 5456 c-3 -3 -4 -23 -2 -46 4 -35 7 -41 26 -38 25 4 31 53 6 53
-8 0 -17 8 -20 18 -3 10 -7 16 -10 13z m40 -62 c0 -8 -7 -14 -15 -14 -15 0
-21 21 -9 33 10 9 24 -2 24 -19z"/>
<path d="M3055 5410 c0 -22 5 -40 10 -40 6 0 9 17 7 40 -2 22 -7 40 -11 40 -3
0 -6 -18 -6 -40z"/>
<path d="M3102 5438 c-17 -17 -15 -43 4 -58 22 -19 49 9 40 44 -7 28 -25 33
-44 14z m32 -13 c6 -18 -2 -45 -15 -45 -5 0 -9 14 -9 30 0 32 14 40 24 15z"/>
<path d="M3167 5443 c-11 -10 -8 -61 4 -69 19 -11 42 22 35 50 -6 25 -25 34
-39 19z m28 -33 c0 -13 -6 -25 -12 -27 -9 -3 -13 6 -13 27 0 21 4 30 13 28 6
-3 12 -15 12 -28z"/>
<path d="M3584 5415 c-8 -20 2 -45 18 -45 9 0 9 3 -2 10 -13 9 -13 12 3 21 9
6 15 14 12 20 -9 14 -25 11 -31 -6z"/>
<path d="M3635 5421 c-3 -7 0 -8 9 -5 10 4 16 -3 19 -23 l5 -28 -2 29 c-1 30
-19 45 -31 27z"/>
<path d="M3724 5418 c-4 -7 -3 -8 4 -4 8 5 12 -1 11 -16 0 -13 -3 -17 -6 -10
-2 6 -9 10 -14 6 -17 -10 -9 -24 14 -24 20 0 23 4 19 30 -4 31 -16 38 -28 18z"/>
<path d="M3781 5422 c-14 -5 -15 -52 0 -52 6 0 8 7 5 15 -4 11 3 19 20 25 34
13 34 13 34 -15 0 -14 4 -25 9 -25 5 0 6 12 2 28 -7 26 -35 36 -70 24z"/>
<path d="M3939 5428 c-5 -16 -3 -58 3 -58 4 0 8 14 8 30 0 17 -2 30 -5 30 -3
0 -5 -1 -6 -2z"/>
<path d="M3971 5416 c-15 -17 -4 -46 18 -46 14 1 14 2 -1 11 -20 11 -12 43 9
35 8 -3 11 -1 8 4 -9 14 -21 12 -34 -4z"/>
<path d="M4025 5421 c-3 -7 0 -8 9 -5 9 3 16 2 16 -4 0 -5 -7 -12 -15 -16 -17
-6 -20 -26 -4 -26 5 0 7 5 4 10 -3 6 -2 10 4 10 5 0 12 -6 15 -12 3 -7 4 0 3
16 -2 30 -20 45 -32 27z"/>
<path d="M3274 5399 c-10 -17 13 -36 27 -22 12 12 4 33 -11 33 -5 0 -12 -5
-16 -11z m26 -9 c0 -5 -4 -10 -10 -10 -5 0 -10 5 -10 10 0 6 5 10 10 10 6 0
10 -4 10 -10z"/>
<path d="M3637 5393 c-10 -9 -9 -23 1 -23 5 0 9 7 9 15 0 17 -1 18 -10 8z"/>
<path d="M3817 5393 c-10 -9 -9 -23 1 -23 5 0 9 7 9 15 0 17 -1 18 -10 8z"/>
<path d="M3498 4895 c-4 -4 -4 -13 -1 -21 3 -8 -1 -14 -11 -14 -8 0 -20 -8
-25 -19 -14 -26 7 -53 39 -48 20 3 24 9 22 29 -5 44 -17 80 -24 73z m7 -70 c0
-28 -29 -25 -33 3 -3 19 0 23 15 20 10 -2 18 -12 18 -23z"/>
<path d="M3677 4856 c3 -13 0 -33 -6 -45 -10 -18 -9 -21 6 -21 15 0 18 9 18
45 0 27 -4 45 -11 45 -6 0 -9 -10 -7 -24z"/>
<path d="M3734 4853 c-3 -10 -10 -26 -15 -35 -12 -24 -12 -26 12 -38 26 -14
52 4 44 31 -3 9 -1 20 4 23 16 10 1 36 -20 36 -11 0 -22 -8 -25 -17z m36 -9
c0 -17 -22 -14 -28 4 -2 7 3 12 12 12 9 0 16 -7 16 -16z m-12 -41 c-4 -22 -22
-20 -26 1 -2 10 3 16 13 16 10 0 15 -7 13 -17z"/>
<path d="M3547 4853 c-21 -21 10 -72 34 -57 9 5 5 10 -12 17 l-24 9 23 11 c22
10 30 27 12 27 -5 0 -10 -4 -10 -10 0 -5 -5 -10 -11 -10 -5 0 -7 5 -4 10 7 11
2 13 -8 3z"/>
<path d="M3395 4840 c-8 -13 3 -30 20 -30 8 0 17 -5 21 -12 5 -8 0 -9 -14 -6
-12 4 -22 2 -22 -4 0 -14 43 -5 48 10 2 7 -5 16 -17 19 -12 3 -21 10 -21 15 0
6 7 8 15 4 8 -3 15 -1 15 4 0 13 -37 13 -45 0z"/>
<path d="M3810 4840 c0 -5 1 -12 3 -14 1 -2 -6 -13 -16 -24 -17 -18 -17 -21
-2 -36 9 -9 20 -16 24 -16 13 0 35 30 28 37 -4 3 -2 12 4 19 6 8 9 21 5 29 -6
17 -46 21 -46 5z m38 -11 c-2 -6 -8 -10 -13 -10 -5 0 -11 4 -13 10 -2 6 4 11
13 11 9 0 15 -5 13 -11z m-18 -49 c0 -11 -4 -20 -9 -20 -14 0 -23 18 -16 30
10 17 25 11 25 -10z"/>
<path d="M3260 4832 c-55 -19 -63 -24 -54 -30 16 -10 44 -68 37 -76 -11 -11 8
-6 44 10 29 14 34 21 31 47 -3 32 -34 58 -58 49z m42 -38 c11 -22 10 -28 -7
-40 -27 -20 -34 -18 -50 18 -16 39 -12 48 21 48 17 0 28 -8 36 -26z"/>
<path d="M3337 4823 c-20 -19 12 -67 38 -57 22 9 18 23 -5 17 -23 -6 -27 12
-5 21 8 3 15 10 15 16 0 11 -33 14 -43 3z"/>
<path d="M3877 4792 c-31 -34 -12 -81 25 -61 23 12 24 47 1 57 -14 5 -12 8 12
13 29 6 29 7 4 8 -14 0 -33 -7 -42 -17z m28 -22 c10 -16 -16 -43 -28 -31 -11
11 -2 41 12 41 5 0 13 -5 16 -10z"/>
<path d="M3383 4541 c-70 -33 -94 -112 -53 -179 37 -60 125 -77 186 -37 20 13
24 23 24 70 l0 55 -61 0 c-57 0 -60 -1 -57 -22 3 -20 8 -22 36 -20 31 3 33 2
30 -25 -3 -24 -8 -28 -40 -31 -76 -6 -117 80 -63 133 28 29 72 32 115 10 29
-15 30 -15 30 9 0 50 -76 70 -147 37z"/>
<path d="M3700 4549 c-94 -38 -114 -150 -39 -213 43 -37 88 -42 143 -17 l46
20 0 55 0 56 -60 0 c-53 0 -60 -2 -60 -20 0 -13 7 -20 20 -21 11 -1 26 -2 32
-3 18 -2 23 -37 6 -47 -18 -12 -65 -11 -88 1 -10 5 -23 23 -28 40 -13 36 1 86
28 100 28 15 83 12 108 -6 21 -15 22 -14 22 14 0 25 -6 32 -31 41 -38 13 -65
13 -99 0z"/>
<path d="M4154 4546 c-106 -47 -98 -200 11 -236 69 -23 145 19 166 90 28 95
-84 188 -177 146z m107 -55 c18 -14 24 -29 24 -61 0 -51 -30 -80 -81 -80 -47
0 -74 29 -74 80 0 51 27 80 74 80 19 0 44 -9 57 -19z"/>
<path d="M2790 4430 l0 -120 69 0 c63 0 71 2 90 26 26 34 26 52 0 80 -20 21
-20 23 -3 49 16 25 16 27 -3 53 -18 24 -28 27 -87 30 l-66 3 0 -121z m111 64
c11 -14 10 -18 -6 -30 -33 -24 -55 -18 -55 16 0 25 4 30 24 30 13 0 30 -7 37
-16z m9 -99 c18 -21 -4 -45 -41 -45 -26 0 -29 4 -29 30 0 26 3 30 29 30 16 0
34 -7 41 -15z"/>
<path d="M3084 4439 c-27 -62 -50 -116 -52 -121 -2 -4 8 -8 21 -8 17 0 28 7
32 20 9 30 97 29 117 -1 8 -13 21 -20 34 -17 20 3 18 9 -30 117 -28 63 -56
116 -62 118 -6 2 -32 -47 -60 -108z m80 -26 c6 -20 4 -23 -18 -23 -29 0 -31 7
-14 45 12 27 19 23 32 -22z"/>
<path d="M3940 4430 l0 -120 25 0 25 0 0 120 0 120 -25 0 -25 0 0 -120z"/>
<path d="M2273 4425 c0 -22 2 -30 4 -17 2 12 2 30 0 40 -3 9 -5 -1 -4 -23z"/>
<path d="M2271 4280 c1 -42 1 -43 9 -16 6 17 5 36 0 45 -7 11 -9 3 -9 -29z"/>
<path d="M2293 4164 c-5 -13 -7 -13 -14 -2 -6 8 -8 -4 -8 -32 0 -25 3 -39 6
-32 2 6 10 12 17 12 8 0 12 13 12 35 -1 39 -4 43 -13 19z"/>
<path d="M3765 4160 c-3 -5 -2 -10 4 -10 5 0 13 5 16 10 3 6 2 10 -4 10 -5 0
-13 -4 -16 -10z"/>
<path d="M3355 4128 c-27 -15 -35 -28 -35 -59 0 -27 24 -56 50 -59 29 -4 50 0
50 10 0 6 -11 8 -25 4 -33 -8 -55 11 -55 46 0 34 22 54 55 48 28 -6 34 6 9 16
-21 8 -25 7 -49 -6z"/>
<path d="M3485 4075 c-14 -32 -22 -61 -19 -64 4 -3 9 0 11 7 3 6 20 12 38 12
18 0 35 -6 38 -12 2 -7 7 -11 10 -8 5 5 -33 103 -45 116 -4 3 -19 -20 -33 -51z
m45 -12 c0 -7 -9 -13 -20 -13 -17 0 -18 3 -8 25 8 19 14 22 20 13 4 -7 8 -19
8 -25z"/>
<path d="M3610 4070 c0 -33 4 -60 10 -60 6 0 10 11 10 25 0 20 5 25 25 25 14
0 25 5 25 11 0 7 -10 9 -25 7 -21 -4 -25 -1 -25 18 0 18 6 24 33 27 28 3 26 4
-10 5 l-43 2 0 -60z"/>
<path d="M3730 4070 l0 -60 43 2 c36 1 38 2 10 5 -25 3 -33 9 -33 24 0 14 7
19 25 19 14 0 25 5 25 10 0 6 -11 10 -25 10 -18 0 -25 5 -25 19 0 15 8 21 33
24 28 3 26 4 -10 5 l-43 2 0 -60z"/>
<path d="M2271 3985 c0 -32 2 -45 8 -36 7 11 11 10 20 -5 9 -15 11 -9 9 33 -2
37 -6 49 -15 42 -7 -7 -13 -5 -16 3 -3 7 -6 -9 -6 -37z"/>
<path d="M2272 3835 c0 -27 2 -44 5 -37 4 10 8 10 19 1 12 -10 14 -4 14 36 0
40 -2 46 -14 36 -11 -9 -15 -9 -19 1 -3 7 -5 -9 -5 -37z"/>
<path d="M2271 3691 c-1 -24 2 -41 6 -38 3 4 12 2 20 -5 11 -9 12 -7 4 16 -6
14 -7 26 -3 26 4 0 8 9 9 21 2 16 -1 18 -12 9 -10 -8 -14 -8 -18 2 -3 7 -6 -7
-6 -31z"/>
<path d="M2300 3581 c0 -8 -7 -11 -15 -7 -12 4 -15 -3 -15 -32 0 -31 4 -38 19
-38 12 0 17 5 13 11 -9 13 -9 37 2 53 4 7 5 16 2 19 -3 4 -6 1 -6 -6z"/>
<path d="M3318 3477 l-16 -33 33 0 33 0 -15 31 c-9 16 -16 31 -17 32 -2 2 -9
-12 -18 -30z"/>
<path d="M3390 3476 c0 -35 13 -48 23 -23 4 10 6 10 6 0 1 -7 5 -13 10 -13 5
0 8 15 7 33 -1 25 -6 33 -24 35 -19 3 -22 -1 -22 -32z"/>
<path d="M3470 3495 c-6 -8 -10 -22 -8 -32 4 -25 48 -30 65 -8 26 37 -27 76
-57 40z m45 -25 c0 -22 -29 -18 -33 3 -3 14 1 18 15 15 10 -2 18 -10 18 -18z"/>
<path d="M3568 3504 c-12 -22 -18 -64 -8 -64 5 0 10 5 10 11 0 8 5 8 15 -1 12
-10 15 -10 15 1 0 10 3 10 12 1 21 -21 26 -13 15 24 -10 31 -12 34 -23 19 -11
-15 -13 -15 -22 1 -5 9 -11 13 -14 8z"/>
<path d="M3671 3479 c-6 -18 -11 -33 -11 -34 0 -1 14 -2 30 -2 17 0 30 2 30 4
0 7 -30 63 -34 63 -2 0 -9 -14 -15 -31z"/>
<path d="M3745 3499 c-4 -5 1 -19 11 -30 16 -18 16 -19 1 -13 -10 3 -17 1 -17
-5 0 -15 37 -14 46 1 4 6 -1 17 -11 25 -11 7 -13 13 -7 13 7 0 12 5 12 10 0
13 -27 13 -35 -1z"/>
<path d="M2295 3430 c-4 -6 -11 -8 -16 -5 -5 4 -9 -13 -8 -37 0 -24 3 -37 6
-30 3 8 9 10 16 3 9 -7 12 3 12 35 0 47 -1 49 -10 34z"/>
<path d="M3138 3328 c-53 -40 -37 -132 25 -143 37 -7 77 7 77 27 0 9 -3 9 -12
0 -7 -7 -26 -12 -43 -12 -41 0 -55 16 -55 60 0 63 50 90 90 48 l20 -22 0 25
c0 21 -5 24 -43 27 -23 1 -50 -3 -59 -10z"/>
<path d="M3270 3338 c-1 -2 -2 -38 -3 -81 -2 -67 0 -77 15 -77 14 0 16 6 12
30 -7 32 9 60 34 60 11 0 14 -9 10 -45 -5 -41 -3 -45 15 -45 16 0 18 3 9 12
-7 7 -12 29 -12 50 0 30 -4 38 -18 38 -10 0 -23 -5 -30 -12 -9 -9 -12 -3 -12
30 0 23 -4 42 -10 42 -5 0 -10 -1 -10 -2z"/>
<path d="M3710 3330 c-10 -6 -11 -10 -2 -10 16 0 16 -112 0 -128 -9 -9 -6 -12
16 -12 22 0 26 3 18 13 -6 7 -12 43 -14 80 -3 56 -5 65 -18 57z"/>
<path d="M3873 3289 c-13 -13 0 -102 16 -107 9 -3 11 0 6 9 -13 20 -12 73 1
79 9 4 9 8 -1 17 -8 7 -16 8 -22 2z"/>
<path d="M2271 3252 c2 -23 7 -38 12 -35 5 3 13 -1 18 -8 6 -9 6 -1 2 21 -3
19 -13 41 -20 49 -12 11 -14 7 -12 -27z"/>
<path d="M3391 3261 c-16 -28 -14 -46 7 -64 25 -22 45 -21 67 3 15 16 17 26 9
48 -12 35 -67 44 -83 13z m63 -7 c17 -45 -8 -80 -39 -54 -15 13 -20 51 -8 63
12 13 41 7 47 -9z"/>
<path d="M3498 3255 c-9 -19 -8 -29 6 -50 17 -26 50 -33 62 -14 4 7 1 10 -7 7
-38 -14 -66 41 -37 70 9 9 9 12 0 12 -7 0 -17 -11 -24 -25z"/>
<path d="M3550 3270 c20 -13 33 -13 25 0 -3 6 -14 10 -23 10 -15 0 -15 -2 -2
-10z"/>
<path d="M3602 3268 c-29 -29 4 -94 45 -86 28 5 45 48 29 73 -16 24 -56 31
-74 13z m62 -20 c12 -19 0 -48 -22 -56 -16 -5 -44 42 -36 62 8 21 43 17 58 -6z"/>
<path d="M3776 3272 c-3 -5 5 -8 17 -8 16 1 22 -5 23 -26 3 -30 -19 -57 -31
-37 -4 6 -1 15 6 20 8 5 9 9 3 9 -16 0 -37 -27 -30 -39 7 -11 71 -10 82 2 4 4
2 7 -4 7 -7 0 -12 16 -12 40 0 36 -3 40 -24 40 -14 0 -27 -4 -30 -8z"/>
<path d="M3941 3261 c-16 -29 -14 -46 8 -65 13 -11 27 -15 40 -11 29 9 26 21
-6 20 -38 0 -41 23 -3 36 36 13 35 33 -3 37 -18 2 -29 -3 -36 -17z m35 -6
c-21 -16 -32 -13 -21 4 3 6 14 11 23 11 15 -1 15 -2 -2 -15z"/>
<path d="M3592 3104 c-5 -11 -15 -37 -22 -59 -7 -22 -19 -50 -26 -62 -13 -21
-13 -23 6 -23 12 0 19 4 16 9 -12 19 5 36 37 35 26 -1 32 -5 31 -23 0 -16 5
-21 24 -21 19 0 22 3 14 13 -6 7 -20 39 -32 72 -27 73 -35 83 -48 59z m26 -51
c10 -31 10 -33 -14 -33 -27 0 -29 6 -14 46 12 31 13 30 28 -13z"/>
<path d="M3895 3112 c-5 -4 -10 -40 -10 -80 0 -57 3 -72 15 -72 12 0 14 12 12
57 -4 92 -6 103 -17 95z"/>
<path d="M3944 3088 c-4 -7 -3 -8 4 -4 6 4 20 2 31 -4 11 -6 22 -6 25 -1 3 5
-4 11 -17 15 -31 8 -35 8 -43 -6z"/>
<path d="M3112 3048 c-7 -7 -12 -24 -12 -38 0 -14 5 -31 12 -38 14 -14 44 -16
52 -3 4 5 -2 7 -12 4 -25 -6 -46 21 -38 52 7 26 41 35 49 13 2 -7 8 -10 12 -6
12 11 -5 28 -29 28 -12 0 -27 -5 -34 -12z"/>
<path d="M3206 3045 c-20 -21 -21 -49 0 -69 21 -22 47 -20 70 5 17 19 17 23 3
47 -17 32 -50 39 -73 17z m52 -7 c17 -17 15 -58 -3 -64 -21 -8 -45 14 -45 41
0 35 24 47 48 23z"/>
<path d="M3319 3055 c-1 -5 0 -23 1 -38 1 -15 -4 -35 -10 -43 -10 -12 -8 -14
16 -14 22 0 25 3 16 12 -19 19 -14 56 8 68 25 13 35 -5 28 -50 -4 -23 -1 -30
12 -30 13 0 16 7 12 30 -4 30 11 60 30 60 6 0 8 -20 6 -45 -2 -35 0 -45 12
-45 12 0 14 10 12 46 -4 49 -22 65 -49 43 -13 -11 -17 -11 -20 -1 -6 15 -39
16 -49 1 -4 -8 -9 -7 -15 2 -5 8 -9 10 -10 4z"/>
<path d="M3698 3009 l26 -51 22 43 c28 52 29 59 9 59 -8 0 -12 -6 -9 -14 3 -8
0 -25 -6 -37 l-12 -22 -13 23 c-7 13 -11 30 -8 37 3 8 -2 13 -14 13 -19 0 -19
-2 5 -51z"/>
<path d="M3796 3044 c-19 -18 -20 -38 -6 -65 12 -21 55 -26 66 -7 5 8 2 9 -11
5 -17 -7 -45 7 -45 23 0 5 14 13 30 19 33 11 39 26 14 35 -24 9 -31 8 -48 -10z
m44 -3 c0 -10 -30 -24 -37 -17 -3 3 -2 9 2 15 8 13 35 15 35 2z"/>
<path d="M3949 3043 c-11 -15 -11 -16 1 -5 25 22 40 14 40 -22 0 -37 -12 -52
-32 -40 -7 5 -5 11 7 21 11 7 14 13 9 13 -14 0 -34 -22 -34 -36 0 -9 14 -12
39 -11 39 1 39 1 34 37 -3 19 -6 41 -9 48 -5 18 -39 15 -55 -5z"/>
<path d="M3483 2719 c-49 -9 -126 -46 -119 -58 3 -4 -29 -6 -71 -4 l-76 5 -59
-63 c-32 -34 -68 -84 -81 -111 -21 -46 -24 -48 -57 -44 -19 2 -45 7 -56 11
-19 6 -26 -3 -59 -69 -29 -60 -36 -83 -31 -109 13 -67 86 -139 135 -131 41 7
149 64 170 90 17 22 44 26 70 9 5 -3 12 -2 15 3 2 4 26 7 53 7 49 -2 108 18
131 45 12 13 13 13 6 0 -6 -12 -4 -13 7 -2 17 15 30 16 27 0 -2 -9 7 -12 27
-10 23 2 27 1 15 -7 -11 -8 -5 -11 26 -11 22 0 44 -3 48 -7 4 -4 19 -9 34 -11
14 -2 32 -8 40 -14 16 -14 115 -18 123 -6 4 6 18 11 32 11 14 1 23 5 20 10 -4
7 11 11 35 8 6 -1 12 3 12 9 0 5 19 11 43 11 26 1 33 3 18 6 -20 4 -10 12 57
44 45 21 86 39 91 39 5 0 11 3 13 8 2 4 26 19 53 33 38 19 51 31 53 51 11 95
-293 197 -441 149 -38 -13 -39 -13 -68 22 -56 68 -147 101 -236 86z m83 -18
c-3 -4 5 -6 18 -4 25 5 75 -16 95 -40 10 -13 7 -13 -26 -2 -21 7 -51 14 -68
16 -30 3 -88 -21 -101 -42 -4 -7 -3 -9 4 -5 5 3 12 3 15 -1 2 -5 3 -3 1 4 -5
19 53 36 101 29 47 -6 105 -31 117 -50 11 -17 -4 -26 -61 -35 -43 -7 -53 -5
-61 8 -8 14 -10 14 -11 1 0 -8 -5 -4 -9 10 -8 24 -8 24 -9 3 -1 -16 -7 -23
-21 -23 -14 0 -20 7 -21 23 -1 15 -3 17 -6 5 -7 -27 -63 -3 -63 27 0 29 -24
49 -51 42 -36 -9 -6 13 37 28 43 16 128 20 120 6z m-144 -96 c51 -21 97 -41
101 -45 5 -4 -3 -31 -18 -60 -25 -50 -27 -51 -41 -32 -13 18 -12 25 7 59 11
21 14 30 6 21 -7 -10 -16 -15 -19 -12 -4 3 -5 -2 -4 -12 0 -9 -5 -19 -12 -21
-7 -3 -10 1 -6 10 3 8 1 18 -5 22 -7 4 -8 0 -4 -11 4 -12 3 -15 -5 -10 -7 4
-12 13 -12 21 0 14 27 28 39 20 4 -2 8 2 8 9 0 16 -23 10 -48 -11 -19 -16 -41
-10 -87 25 -27 20 -35 22 -47 12 -9 -7 -39 -24 -66 -36 -28 -13 -62 -33 -76
-44 -65 -51 -37 6 46 93 46 48 47 49 98 44 28 -3 93 -22 145 -42z m528 -5 c0
-5 7 -7 15 -4 8 3 47 -4 87 -16 l73 -22 -37 -19 c-38 -19 -78 -67 -78 -91 1
-7 10 4 21 25 15 28 33 44 66 59 45 20 46 20 72 1 14 -11 33 -32 41 -47 14
-25 13 -28 -5 -42 -11 -8 -26 -12 -34 -9 -9 3 -12 3 -8 -1 10 -10 -114 -76
-131 -69 -7 2 -11 1 -8 -4 3 -5 -13 -18 -37 -29 -41 -19 -42 -19 -49 -1 -9 24
-18 25 -11 1 6 -24 -8 -34 -92 -68 -68 -27 -105 -32 -128 -17 -7 4 -15 8 -19
9 -5 1 -9 2 -10 3 -2 2 -15 4 -30 6 -34 4 -72 24 -47 25 19 0 21 30 2 30 -7 0
-13 4 -13 9 0 6 12 6 30 1 35 -10 40 -3 8 10 -15 6 -17 9 -7 9 19 1 79 -28 79
-37 0 -4 -4 -14 -10 -22 -8 -13 -10 -12 -15 1 -3 9 -12 16 -20 16 -18 0 -20
-23 -2 -24 6 0 20 -4 30 -8 10 -4 17 -3 17 5 0 6 7 18 15 26 13 14 15 14 15 0
0 -17 35 -22 44 -7 4 5 -4 7 -16 4 -14 -3 -18 -1 -11 4 6 4 14 20 18 35 10 37
76 95 119 103 38 8 79 -1 71 -15 -3 -5 0 -12 6 -16 8 -4 9 -3 5 4 -9 15 6 16
20 2 7 -7 10 -4 8 12 -1 13 -3 24 -3 26 -1 1 -1 5 0 8 1 3 -11 19 -27 35 -46
48 -168 78 -237 58 -52 -15 -15 11 45 32 56 19 178 26 178 9z m-627 -49 c-2
-6 3 -8 10 -5 20 7 104 -52 123 -87 25 -49 14 -113 -25 -153 -30 -29 -36 -31
-114 -32 -45 -1 -88 3 -94 8 -9 7 -13 6 -14 -3 0 -8 -5 -3 -10 11 -6 14 -8 33
-5 42 2 10 0 18 -6 18 -5 0 -6 5 -2 12 5 7 3 8 -6 3 -10 -6 -12 -4 -6 11 4 10
4 15 0 11 -4 -4 -18 2 -30 14 l-23 22 20 38 c11 22 17 39 14 39 -2 0 -13 -17
-24 -37 -12 -22 -20 -31 -21 -21 0 29 58 86 108 105 26 10 50 17 55 15 4 -1 6
1 6 6 -3 20 3 23 24 9 12 -8 21 -20 20 -26z m505 -53 l84 -31 -38 -13 c-21 -7
-42 -10 -48 -7 -6 3 -8 3 -5 -1 3 -3 -9 -22 -27 -42 -19 -19 -34 -42 -34 -49
0 -19 -17 -28 -26 -14 -4 8 -3 9 4 5 24 -14 11 24 -18 57 -32 37 -52 47 -143
72 -32 9 -55 21 -51 26 3 6 13 8 21 5 8 -3 12 -2 8 3 -3 5 7 14 22 20 44 17
158 3 251 -31z m55 35 c3 -5 1 -17 -4 -28 -4 -11 -8 -14 -8 -7 -1 7 -5 10 -11
7 -5 -3 -10 -1 -10 4 0 6 8 11 18 11 14 0 15 2 2 10 -9 6 -10 10 -3 10 6 0 14
-3 16 -7z m-273 -79 c86 -27 87 -29 27 -69 -15 -10 -31 -15 -35 -11 -7 8 19
27 29 21 3 -3 14 4 24 15 22 24 13 26 -20 4 -26 -17 -34 -7 -12 15 8 10 8 12
0 7 -6 -3 -14 -2 -18 3 -3 5 -14 8 -25 6 -11 -2 -20 0 -20 5 0 4 -12 13 -27
18 -57 21 -1 11 77 -14z m-76 -26 c-13 -20 9 -28 29 -12 17 14 17 13 -2 -6
-16 -18 -25 -21 -28 -12 -4 9 -9 10 -18 2 -9 -8 -14 -7 -18 4 -4 10 -1 13 7
10 7 -3 16 2 20 12 4 12 2 15 -9 10 -8 -3 -15 -1 -15 3 0 5 6 11 13 14 14 5
28 -13 21 -25z m-559 12 c3 -5 32 -10 64 -10 50 0 61 -4 89 -31 17 -16 38 -50
48 -75 22 -57 9 -89 -44 -111 -20 -8 -48 -23 -62 -32 -14 -10 -42 -18 -63 -20
-31 -2 -43 3 -71 31 -59 59 -65 138 -15 198 11 14 17 19 13 11 -5 -10 -3 -12
5 -7 7 5 10 15 7 23 -10 26 15 46 29 23z m619 -34 c-3 -15 -8 -25 -11 -23 -2
3 -1 17 3 31 3 15 8 25 11 23 2 -3 1 -17 -3 -31z m124 -8 c14 -14 16 -32 3
-24 -5 3 -12 -2 -15 -11 -6 -15 -8 -15 -22 -2 -16 17 -9 49 10 49 7 0 17 -5
24 -12z m-215 -49 c4 -16 3 -18 -9 -8 -7 6 -11 15 -8 20 8 13 11 11 17 -12z
m57 -8 c3 -2 -3 -1 -12 2 -10 4 -18 4 -18 0 0 -11 35 -32 55 -33 17 0 17 -2 5
-10 -19 -12 -43 -13 -35 -1 3 5 1 12 -5 16 -5 3 -10 2 -10 -4 0 -6 -8 -7 -17
-4 -9 4 -12 8 -6 10 5 2 8 16 5 31 -5 25 -4 26 14 12 10 -8 21 -16 24 -19z"/>
<path d="M3628 2613 c5 -21 7 -23 10 -9 2 10 0 22 -6 28 -6 6 -7 0 -4 -19z"/>
<path d="M3199 2613 c-8 -10 -21 -27 -29 -38 -14 -19 -14 -19 6 -2 11 9 23 14
26 11 3 -3 9 0 14 7 4 8 3 10 -4 5 -19 -11 -14 5 6 20 9 7 12 14 6 14 -6 0
-17 -8 -25 -17z"/>
<path d="M3820 2590 c-8 -5 -10 -10 -5 -10 6 0 17 5 25 10 8 5 11 10 5 10 -5
0 -17 -5 -25 -10z"/>
<path d="M3920 2570 c-9 -6 -10 -10 -3 -10 6 0 15 5 18 10 8 12 4 12 -15 0z"/>
<path d="M4140 2521 c0 -6 4 -13 10 -16 6 -3 7 1 4 9 -7 18 -14 21 -14 7z"/>
<path d="M4066 2502 c-3 -5 1 -9 9 -9 8 0 12 4 9 9 -3 4 -7 8 -9 8 -2 0 -6 -4
-9 -8z"/>
<path d="M4120 2490 c0 -5 5 -10 10 -10 6 0 10 5 10 10 0 6 -4 10 -10 10 -5 0
-10 -4 -10 -10z"/>
<path d="M4164 2484 c-18 -14 -18 -14 6 -3 31 14 36 19 24 19 -6 0 -19 -7 -30
-16z"/>
<path d="M4074 2468 c1 -7 5 -19 9 -25 5 -7 5 -13 0 -13 -4 0 -1 -4 7 -9 24
-16 33 -1 11 18 -11 10 -18 20 -15 24 3 3 1 8 -4 11 -6 3 -9 0 -8 -6z"/>
<path d="M4115 2460 c-3 -6 1 -7 9 -4 18 7 21 14 7 14 -6 0 -13 -4 -16 -10z"/>
<path d="M4025 2420 c-3 -5 -2 -10 4 -10 5 0 13 5 16 10 3 6 2 10 -4 10 -5 0
-13 -4 -16 -10z"/>
<path d="M3835 2360 c-3 -5 -1 -10 4 -10 6 0 11 5 11 10 0 6 -2 10 -4 10 -3 0
-8 -4 -11 -10z"/>
<path d="M3850 2339 c-39 -17 -56 -28 -43 -29 12 0 24 4 27 9 3 5 18 12 33 16
26 6 76 36 58 34 -6 -1 -39 -14 -75 -30z"/>
<path d="M3785 2351 c-3 -5 -1 -12 5 -16 5 -3 10 1 10 9 0 18 -6 21 -15 7z"/>
<path d="M3713 2275 c0 -7 6 -11 14 -8 7 3 13 6 13 8 0 2 -6 5 -13 8 -8 3 -14
-1 -14 -8z"/>
<path d="M3775 2279 c-4 -6 -5 -12 -2 -15 2 -3 7 2 10 11 7 17 1 20 -8 4z"/>
<path d="M3231 2541 c-8 -6 -9 -11 -3 -15 6 -3 14 -1 17 5 9 14 2 20 -14 10z"/>
<path d="M3250 2519 c-11 -19 -10 -20 9 -9 22 11 29 30 11 30 -5 0 -14 -9 -20
-21z"/>
<path d="M3406 2487 c3 -10 9 -15 12 -12 3 3 0 11 -7 18 -10 9 -11 8 -5 -6z"/>
<path d="M3320 2406 c0 -2 7 -9 15 -16 9 -7 15 -8 15 -2 0 5 -7 12 -15 16 -8
3 -15 4 -15 2z"/>
<path d="M3279 2333 c-13 -16 -12 -17 4 -4 9 7 17 15 17 17 0 8 -8 3 -21 -13z"/>
<path d="M3200 2321 c0 -5 5 -13 10 -16 6 -3 10 -2 10 4 0 5 -4 13 -10 16 -5
3 -10 2 -10 -4z"/>
<path d="M3328 2323 c6 -2 12 -9 12 -15 0 -6 -6 -8 -14 -5 -8 3 -20 -1 -26 -9
-11 -12 -7 -14 22 -14 32 0 35 2 30 25 -2 15 -11 25 -21 24 -10 0 -11 -2 -3
-6z"/>
<path d="M3387 2316 c-13 -10 -15 -15 -5 -19 16 -5 48 10 48 23 0 14 -22 12
-43 -4z m33 0 c0 -2 -7 -7 -16 -10 -8 -3 -12 -2 -9 4 6 10 25 14 25 6z"/>
<path d="M3574 2511 c5 -8 56 -3 56 5 0 2 -14 4 -31 4 -16 0 -28 -4 -25 -9z"/>
<path d="M3680 2516 c0 -2 7 -6 15 -10 8 -3 15 -1 15 4 0 6 -7 10 -15 10 -8 0
-15 -2 -15 -4z"/>
<path d="M3789 2458 c-8 -26 -5 -36 8 -31 11 4 12 8 3 13 -9 6 -9 9 1 13 10 4
10 6 2 6 -7 1 -13 0 -14 -1z"/>
<path d="M2985 2400 c-3 -5 -1 -18 4 -28 6 -11 7 -23 3 -28 -4 -5 2 -2 12 6
18 14 19 13 13 -2 -3 -10 -1 -20 5 -24 7 -4 8 -3 4 4 -4 7 -2 12 4 12 10 0 28
-37 33 -70 3 -20 27 -53 34 -46 3 2 -2 17 -10 33 -9 17 -11 36 -7 48 8 22 -5
55 -21 55 -6 0 -3 -7 6 -16 9 -9 14 -19 11 -22 -9 -8 -46 29 -40 39 3 5 -1 9
-9 9 -8 0 -21 7 -28 16 -12 15 -11 16 11 10 19 -6 21 -5 10 3 -19 13 -27 14
-35 1z"/>
<path d="M2911 2284 c0 -11 3 -14 6 -6 3 7 2 16 -1 19 -3 4 -6 -2 -5 -13z"/>
<path d="M3162 2260 c0 -14 2 -19 5 -12 2 6 2 18 0 25 -3 6 -5 1 -5 -13z"/>
<path d="M3006 2252 c-2 -4 4 -9 15 -9 11 -1 17 2 14 8 -7 11 -22 12 -29 1z"/>
<path d="M3685 2389 c-4 -6 -3 -15 3 -21 6 -6 11 -4 15 6 7 18 -9 31 -18 15z"/>
<path d="M3460 2265 c-7 -9 -8 -15 -2 -15 5 0 12 7 16 15 3 8 4 15 2 15 -2 0
-9 -7 -16 -15z"/>
<path d="M3398 1909 c-10 -5 -18 -15 -18 -21 0 -9 3 -9 12 0 7 7 18 12 25 12
22 0 15 -35 -12 -60 -14 -13 -25 -27 -25 -32 0 -12 58 -10 65 2 4 7 -3 8 -21
4 l-29 -7 28 32 c15 18 27 36 27 41 0 7 -28 41 -33 40 -1 0 -10 -5 -19 -11z"/>
<path d="M3500 1911 c-32 -9 -41 -51 -11 -51 39 0 37 -45 -2 -53 l-22 -4 21
-2 c46 -3 58 54 16 75 -24 12 -19 24 10 24 10 0 18 5 18 10 0 6 -1 10 -2 9 -2
-1 -14 -4 -28 -8z"/>
<path d="M3565 1904 c-36 -37 1 -127 39 -95 28 24 16 111 -15 111 -4 0 -15 -7
-24 -16z m45 -45 c0 -28 -11 -49 -25 -49 -19 0 -29 55 -14 81 11 22 12 22 25
4 8 -10 14 -27 14 -36z"/>
<path d="M3645 1868 c-2 -7 -3 -33 -2 -58 2 -37 6 -46 23 -48 23 -3 49 21 39
38 -3 5 -16 10 -28 11 l-22 0 23 9 c12 5 22 14 22 19 0 5 2 16 5 23 4 10 -4
14 -25 16 -18 1 -32 -3 -35 -10z m41 -9 c10 -17 -13 -36 -27 -22 -12 12 -4 33
11 33 5 0 12 -5 16 -11z m2 -68 c11 -7 10 -10 -3 -15 -20 -7 -38 1 -30 15 7
11 16 11 33 0z"/>
<path d="M2329 1571 c-22 -17 -26 -18 -41 -4 -16 14 -17 10 -17 -54 0 -66 1
-67 18 -47 l17 21 26 -22 25 -22 -24 -21 -25 -22 -18 22 c-18 23 -18 22 -18
-44 0 -68 8 -83 27 -50 9 16 11 16 23 1 7 -9 22 -21 33 -27 17 -10 17 -11 3
-12 -9 0 -24 -10 -32 -22 l-15 -21 -21 24 -21 24 3 -37 c1 -20 -1 -40 -5 -44
-10 -10 -9 -54 2 -54 5 0 14 7 21 15 16 19 20 19 48 -5 l24 -20 -28 -24 c-28
-23 -29 -23 -42 -5 -7 10 -17 19 -23 19 -13 0 -11 -44 2 -57 8 -8 8 -13 0 -17
-13 -9 -15 -56 -2 -56 6 0 16 9 24 20 l14 20 18 -20 c10 -11 25 -20 34 -20 12
-1 11 -3 -4 -12 -11 -6 -25 -17 -32 -25 -10 -13 -15 -11 -35 9 l-23 23 -3 -28
c-2 -16 2 -35 9 -43 8 -10 8 -14 0 -14 -6 0 -11 -13 -11 -30 0 -35 13 -39 33
-10 l14 20 18 -20 c10 -11 25 -20 34 -21 12 0 10 -3 -4 -9 -12 -4 -27 -15 -34
-24 -13 -15 -15 -15 -28 4 -8 11 -18 20 -24 20 -13 0 -11 -44 2 -57 7 -7 7
-13 1 -17 -5 -3 -7 -17 -4 -31 4 -25 5 -25 23 -9 17 16 21 16 32 2 6 -9 21
-20 32 -26 13 -7 15 -12 6 -12 -8 0 -23 -7 -33 -17 -17 -15 -19 -15 -38 2 -15
14 -20 15 -20 4 0 -31 26 -96 36 -92 6 2 17 -3 24 -12 7 -8 19 -15 26 -15 8 0
14 -4 14 -10 0 -5 -6 -10 -14 -10 -21 0 -27 -15 -18 -41 l9 -23 17 27 18 26
22 -26 22 -26 -24 -24 -23 -23 -19 22 -19 23 -1 -32 c0 -25 4 -33 18 -33 14 0
14 -2 3 -9 -8 -5 -11 -16 -7 -26 5 -13 9 -15 20 -6 10 9 15 8 20 -4 6 -16 56
-21 56 -6 0 5 -10 18 -23 28 l-23 18 28 23 c24 20 29 21 34 8 3 -8 14 -18 25
-21 17 -6 16 -8 -9 -30 -15 -13 -24 -26 -21 -30 12 -11 59 7 59 24 1 14 2 14
11 -1 5 -10 21 -18 34 -18 30 0 32 11 5 27 -19 12 -19 13 5 37 l25 25 24 -24
c24 -24 24 -25 5 -35 -10 -6 -19 -15 -19 -20 0 -14 44 -12 58 2 9 9 12 9 12 0
0 -7 14 -12 33 -12 l32 1 -26 22 -27 22 29 23 c16 13 29 19 29 13 0 -6 11 -17
25 -23 l26 -12 -28 -22 -28 -23 33 -1 c18 0 32 5 32 12 0 9 3 9 12 0 13 -13
58 -17 58 -4 0 4 -12 15 -27 24 -20 12 -23 18 -11 18 9 0 23 9 31 20 l14 20
18 -20 c10 -11 25 -20 34 -20 10 -1 5 -7 -11 -16 -16 -8 -28 -19 -28 -24 0
-14 44 -12 58 2 9 9 12 9 12 0 0 -7 14 -12 33 -12 l32 1 -26 22 -27 22 29 23
c25 20 30 21 35 8 3 -8 14 -18 25 -21 17 -6 16 -8 -9 -30 l-27 -24 32 -1 c17
0 34 6 36 13 4 10 6 10 6 0 1 -15 61 -18 61 -3 0 5 -12 16 -27 24 -16 8 -22
15 -15 16 6 0 21 9 31 19 19 19 20 19 37 0 9 -10 24 -19 33 -19 10 -1 5 -7
-11 -16 -16 -8 -28 -19 -28 -24 0 -14 44 -12 58 2 9 9 12 9 12 0 0 -7 14 -12
32 -12 30 0 31 0 13 20 -10 11 -25 20 -34 21 -14 0 -14 1 -1 6 8 3 25 15 38
26 12 11 22 15 22 9 0 -6 12 -17 26 -25 l25 -13 -25 -12 c-14 -6 -26 -16 -26
-22 0 -14 57 -12 63 3 4 10 6 10 6 0 1 -15 61 -18 61 -3 0 5 -12 16 -27 24
-16 8 -22 15 -15 16 6 0 21 9 31 19 19 19 20 19 37 0 9 -10 24 -19 33 -19 9 0
2 -9 -16 -20 -18 -11 -33 -22 -33 -24 0 -2 32 -4 70 -4 39 0 70 2 70 4 0 2
-15 13 -32 24 -19 11 -26 20 -17 20 9 0 24 9 33 19 17 19 18 19 37 0 10 -10
27 -19 37 -19 10 -1 3 -7 -15 -15 -18 -8 -33 -19 -33 -25 0 -14 57 -13 63 3 4
9 6 9 6 0 1 -15 61 -18 61 -3 0 5 -12 16 -27 24 -16 8 -22 15 -15 16 6 0 20 8
30 18 17 17 19 17 51 -5 19 -13 27 -23 19 -23 -8 0 -23 -9 -33 -20 -18 -20
-17 -20 13 -20 17 0 33 6 35 13 4 9 8 9 15 -1 5 -8 22 -12 38 -10 l29 3 -35
23 c-20 12 -28 22 -19 22 9 0 24 9 34 20 l18 20 22 -20 c12 -11 28 -20 36 -20
8 0 -1 -8 -18 -16 -18 -9 -33 -20 -33 -25 0 -14 58 -11 63 4 4 9 6 9 6 0 1 -8
14 -13 33 -13 30 0 31 0 13 20 -10 11 -25 20 -34 20 -9 1 -1 7 17 15 17 8 32
20 32 26 0 7 10 3 23 -9 13 -12 30 -22 38 -22 8 0 -2 -10 -21 -22 l-35 -23 30
-3 c16 -2 31 1 33 8 3 8 7 8 17 0 8 -6 26 -10 42 -8 l28 3 -35 23 c-20 12 -28
22 -19 22 9 0 24 9 33 19 17 19 18 19 37 0 10 -10 24 -19 29 -19 20 0 9 -18
-15 -24 -14 -4 -25 -11 -25 -16 0 -15 57 -12 63 3 4 9 6 9 6 0 1 -8 14 -13 34
-13 l32 1 -30 24 c-16 14 -25 25 -18 25 7 0 20 9 30 19 18 19 18 19 45 -4 l28
-24 -28 -20 -27 -20 33 -1 c22 0 32 5 32 15 0 8 5 15 10 15 6 0 10 -7 10 -15
0 -9 9 -15 25 -15 30 0 32 11 5 27 -19 12 -19 13 5 37 l25 25 24 -24 23 -23
-21 -21 -20 -21 26 0 c14 0 29 6 32 12 3 9 8 8 16 -5 13 -20 64 -24 57 -4 -2
6 -10 11 -16 9 -7 -1 -10 2 -7 7 4 5 -1 14 -10 19 -16 9 -15 10 3 16 12 4 24
14 27 23 6 14 9 13 27 -5 11 -12 25 -22 31 -22 6 0 -1 -9 -16 -21 -14 -11 -26
-25 -26 -30 0 -16 49 -10 60 8 10 17 10 17 20 0 12 -18 50 -24 50 -7 0 6 -9
18 -19 26 -18 16 -18 17 7 39 24 21 28 21 39 6 11 -14 13 -13 14 9 1 14 1 28
1 31 -1 4 3 21 8 38 10 34 -4 43 -24 15 -11 -14 -15 -14 -38 7 l-25 22 26 23
c25 21 26 21 39 3 7 -10 20 -19 28 -19 18 0 18 29 0 49 -13 14 -11 19 9 43 13
15 25 23 27 17 2 -6 9 13 14 42 11 51 11 52 -6 32 l-17 -22 -21 28 -20 28 20
21 21 21 18 -22 18 -22 1 33 c0 18 -5 32 -12 32 -9 0 -9 3 0 12 7 7 12 23 12
38 l-1 25 -18 -22 -18 -22 -23 24 c-22 24 -22 24 -3 49 l20 25 21 -22 22 -21
0 25 c0 14 -5 30 -12 37 -9 9 -9 12 0 12 7 0 12 11 12 25 0 29 -15 33 -29 8
-8 -16 -11 -15 -29 7 -18 22 -19 27 -6 41 8 8 14 22 14 29 0 8 9 4 23 -10 l22
-25 3 24 c2 13 -2 28 -10 32 -9 6 -10 11 -2 17 5 4 10 17 10 29 l0 22 -23 -21
c-15 -14 -23 -17 -23 -8 0 7 -6 21 -14 29 -13 14 -12 19 5 40 19 23 20 23 34
5 12 -17 14 -13 14 40 0 54 -2 57 -16 43 -15 -14 -18 -14 -36 9 -19 24 -19 26
-1 47 10 12 20 24 21 26 2 3 10 -4 17 -15 13 -17 14 -13 14 41 0 54 -1 58 -14
41 -7 -11 -15 -18 -17 -15 -1 2 -10 14 -21 26 -17 21 -17 22 3 44 17 19 23 20
37 8 14 -11 16 -10 12 11 -2 17 -10 26 -27 28 -14 2 -21 0 -17 -7 5 -7 1 -8
-10 -4 -11 4 -22 -1 -30 -12 -13 -18 -15 -18 -37 3 -30 28 -72 28 -100 0 l-22
-23 -22 23 c-28 28 -76 29 -104 1 l-21 -21 -22 21 c-29 27 -71 27 -99 -1 l-22
-23 -22 23 c-28 28 -76 29 -104 1 l-21 -21 -22 21 c-29 27 -71 27 -99 -1 l-22
-23 -22 23 c-28 28 -76 29 -104 1 l-21 -21 -22 21 c-30 29 -80 28 -102 -2
l-17 -23 -23 23 c-29 29 -77 30 -105 2 l-21 -21 -22 21 c-28 26 -66 27 -97 2
-24 -19 -25 -19 -48 0 -31 25 -69 24 -97 -2 l-23 -21 -22 21 c-28 26 -69 27
-100 2 -24 -19 -25 -19 -48 0 -32 27 -75 24 -98 -5 l-19 -24 -21 24 c-28 31
-76 32 -106 2 l-22 -23 -22 23 c-28 28 -68 28 -97 -1 l-23 -23 -23 23 c-29 30
-75 30 -102 0 l-21 -23 -23 23 c-30 30 -69 29 -99 -1 l-24 -24 -22 24 c-27 29
-68 31 -100 5z m227 -39 c16 -9 16 -12 -7 -39 l-24 -29 -23 28 -23 27 21 21
c11 11 20 26 21 33 0 6 4 2 9 -10 5 -12 17 -26 26 -31z m-166 23 c0 -8 9 -19
19 -25 19 -10 19 -11 -5 -35 l-24 -24 -23 23 -23 23 20 26 c24 29 36 34 36 12z
m295 -4 c3 -11 12 -22 20 -25 12 -4 10 -11 -10 -30 l-25 -25 -23 23 -23 23 20
26 c25 31 33 33 41 8z m151 -56 l-20 -23 -22 21 -22 21 21 26 22 26 20 -24 21
-25 -20 -22z m147 1 c-10 -11 -18 -22 -19 -24 -1 -2 -13 8 -26 21 l-24 24 20
25 21 25 23 -25 c22 -23 23 -25 5 -46z m143 0 l-21 -22 -20 21 -21 20 20 25
21 26 21 -25 20 -24 -20 -21z m142 -2 l-19 -22 -23 22 c-21 20 -21 22 -4 39
10 10 18 23 18 30 0 7 11 -1 24 -18 l24 -30 -20 -21z m158 33 c10 -6 8 -13 -9
-30 l-22 -23 -21 20 -21 21 21 26 c18 23 22 24 30 10 5 -9 15 -19 22 -24z
m131 -31 l-20 -22 -21 20 -22 21 20 25 21 26 20 -24 c21 -24 21 -25 2 -46z
m158 29 c8 -7 5 -16 -11 -31 l-23 -22 -21 23 -21 22 23 26 c21 23 24 24 32 9
5 -9 15 -21 21 -27z m133 -31 l-20 -22 -22 22 -22 21 20 25 21 26 21 -25 c21
-24 21 -25 2 -47z m157 31 c8 -7 5 -16 -11 -31 l-23 -22 -21 23 -21 22 23 26
c21 23 24 24 32 9 5 -9 15 -21 21 -27z m133 -31 l-21 -21 -21 21 -22 21 21 26
20 27 21 -26 22 -27 -20 -21z m158 33 c10 -6 8 -13 -9 -30 -22 -23 -22 -23
-44 -4 l-22 19 22 29 c19 27 22 28 31 12 5 -10 15 -21 22 -26z m131 -31 l-20
-22 -21 20 -22 21 20 25 21 26 20 -24 c21 -24 21 -25 2 -46z m159 31 c10 -5 6
-14 -13 -33 -14 -14 -26 -24 -27 -22 -1 2 -9 13 -19 24 -17 21 -17 22 5 47 21
23 24 24 32 9 5 -9 15 -20 22 -25z m131 -31 l-20 -22 -21 20 -22 21 20 25 21
26 20 -24 c21 -24 21 -25 2 -46z m-2257 -16 c0 -6 11 -15 23 -21 l24 -11 -26
-26 -26 -27 -25 24 -26 25 21 22 c22 24 35 29 35 14z m163 -58 l-24 -22 -28
22 -27 23 25 21 25 22 27 -22 26 -21 -24 -23z m127 58 c0 -6 11 -15 24 -21
l25 -12 -29 -23 -28 -24 -24 21 -24 22 20 22 c23 25 36 30 36 15z m161 -56
l-25 -22 -27 22 c-23 18 -24 22 -10 30 9 5 20 15 24 23 7 11 14 9 35 -9 l28
-23 -25 -21z m144 1 l-20 -21 -25 20 -26 21 25 21 24 20 21 -20 22 -21 -21
-20z m145 -2 l-25 -22 -22 21 -23 21 23 21 22 22 25 -20 26 -21 -26 -22z m143
43 l23 -23 -23 -21 -23 -21 -23 22 -22 22 20 21 c11 12 21 22 22 23 1 1 13
-10 26 -23z m168 -16 c6 0 -2 -11 -18 -24 l-27 -24 -26 21 -26 22 26 21 c25
22 25 22 43 3 10 -10 22 -19 28 -19z m122 -27 l-23 -22 -23 22 -22 22 20 20
20 21 26 -21 26 -20 -24 -22z m168 27 c6 0 -2 -11 -18 -24 l-27 -24 -26 21
-26 22 26 21 c25 22 25 22 43 3 10 -10 22 -19 28 -19z m122 16 l23 -23 -23
-21 -23 -21 -23 22 -22 22 20 21 c11 12 21 22 22 23 1 1 13 -10 26 -23z m168
-16 c5 0 -2 -11 -18 -24 l-27 -24 -26 21 -26 22 25 21 c24 20 25 20 43 2 10
-10 23 -18 29 -18z m122 16 l23 -23 -23 -21 -23 -20 -23 20 -23 21 20 22 c12
13 22 23 23 24 1 1 13 -10 26 -23z m168 -16 c6 0 -2 -11 -18 -24 l-27 -24 -26
21 -26 22 26 21 c25 22 25 22 43 3 10 -10 22 -19 28 -19z m122 -26 l-23 -23
-23 21 -23 21 20 21 21 22 25 -20 25 -20 -22 -22z m168 26 c5 0 -2 -11 -18
-24 l-27 -24 -26 21 -26 22 25 21 c24 20 25 20 43 2 10 -10 23 -18 29 -18z
m149 -3 c12 -4 12 -6 -2 -6 -9 -1 -23 -10 -31 -21 l-14 -21 -25 22 -24 22 20
22 c20 20 22 20 41 4 11 -9 27 -19 35 -22z m-2262 -90 c-9 -7 -20 -21 -26 -32
-10 -17 -11 -17 -12 -3 0 9 -9 23 -21 32 l-21 14 21 21 c12 12 21 26 21 32 0
6 12 -4 26 -21 23 -27 25 -32 12 -43z m-154 38 l25 -25 -24 -24 -24 -24 -21
23 c-22 23 -22 24 -4 49 11 14 20 26 21 26 1 0 13 -11 27 -25z m290 -1 l22
-27 -23 -23 -24 -24 -23 26 -22 27 20 22 c27 29 23 29 50 -1z m143 -47 l-22
-22 -22 22 -22 23 22 24 21 24 23 -24 22 -24 -22 -23z m147 47 c18 -25 18 -26
-4 -49 l-22 -24 -22 26 -22 26 20 22 c27 29 28 29 50 -1z m142 -47 l-23 -23
-21 23 -20 23 20 23 21 23 23 -23 23 -23 -23 -23z m143 1 l-23 -26 -19 24
c-18 23 -18 24 0 48 l18 25 23 -23 23 -23 -22 -25z m147 2 l-20 -25 -22 22
-23 23 21 23 21 23 21 -20 22 -21 -20 -25z m141 -4 l-21 -24 -19 24 c-18 23
-18 24 0 48 l18 24 22 -24 22 -24 -22 -24z m148 3 l-20 -26 -22 23 -22 24 21
23 21 23 21 -20 22 -21 -21 -26z m144 -1 l-22 -25 -22 25 -21 25 20 22 21 22
23 -22 23 -22 -22 -25z m148 -1 l-22 -22 -22 22 -22 23 21 23 21 23 23 -23 23
-23 -22 -23z m142 1 l-22 -25 -22 25 -21 25 20 22 21 22 23 -22 23 -22 -22
-25z m147 -1 l-23 -23 -21 23 -20 23 20 23 21 23 23 -23 23 -23 -23 -23z m142
0 l-21 -24 -22 25 -21 25 20 21 21 22 22 -23 22 -23 -21 -23z m145 -1 l-19
-24 -21 24 -21 24 21 24 21 24 19 -24 c18 -23 18 -25 0 -48z m145 1 l-21 -23
-23 23 -23 23 22 23 22 23 22 -23 22 -23 -21 -23z m-2227 -61 c-9 -5 -20 -15
-24 -23 -7 -11 -14 -9 -36 9 l-28 23 26 25 26 25 26 -25 c24 -22 25 -26 10
-34z m286 2 c-9 -4 -20 -14 -23 -23 -5 -12 -10 -11 -33 8 l-27 22 25 25 24 25
26 -25 c24 -23 24 -26 8 -32z m-155 31 l24 -22 -23 -23 c-23 -23 -24 -23 -43
-4 -11 11 -26 20 -32 20 -10 0 37 47 49 50 1 0 12 -10 25 -21z m291 -44 c-25
-21 -27 -21 -45 -3 -10 10 -23 18 -29 18 -5 0 2 11 18 24 l27 24 27 -20 27
-20 -25 -23z m143 44 l22 -20 -22 -23 -21 -22 -26 21 -26 20 21 21 c27 28 26
28 52 3z m145 -45 c-25 -21 -26 -21 -39 -3 -7 10 -20 19 -28 19 -10 0 -5 8 13
24 l27 24 26 -21 26 -22 -25 -21z m143 45 l23 -22 -21 -21 -21 -22 -26 21 -26
20 21 21 c27 28 24 28 50 3z m147 -45 c-25 -21 -26 -21 -39 -3 -7 10 -20 19
-28 19 -10 0 -5 8 13 24 l27 24 26 -21 26 -22 -25 -21z m141 44 l24 -23 -22
-21 -21 -20 -25 21 -25 22 21 20 c11 11 22 21 23 22 1 0 12 -9 25 -21z m149
-44 c-24 -20 -25 -20 -43 -2 -10 10 -23 18 -29 18 -5 0 2 11 18 24 l27 24 26
-21 26 -22 -25 -21z m141 45 l24 -22 -23 -23 -23 -23 -23 23 -24 23 21 20 c12
12 22 21 23 22 1 0 12 -9 25 -20z m149 -45 c-24 -20 -25 -20 -43 -2 -10 10
-23 18 -29 18 -5 0 2 11 18 24 l27 24 26 -21 26 -22 -25 -21z m141 44 l24 -23
-22 -21 -21 -20 -25 21 -25 22 21 20 c11 11 22 21 23 22 1 0 12 -9 25 -21z
m152 -36 c-13 -7 -24 -17 -24 -23 0 -6 -13 0 -28 13 l-28 23 25 21 25 22 27
-22 26 -21 -23 -13z m139 36 l24 -21 -25 -22 -25 -21 -21 20 -22 21 21 21 c11
12 21 22 22 23 1 1 12 -9 26 -21z m143 -42 l-21 -22 -25 20 -26 21 26 22 25
22 21 -20 22 -20 -22 -23z m134 54 c0 -5 12 -16 28 -24 16 -9 21 -15 11 -16
-9 0 -24 -9 -33 -19 -17 -19 -18 -19 -39 3 l-23 21 21 21 c22 24 35 29 35 14z
m-2233 -132 l-23 -23 -23 27 c-19 24 -20 29 -7 34 8 3 18 14 21 25 6 17 9 16
31 -10 l25 -30 -24 -23z m300 39 c11 -7 9 -14 -9 -35 l-23 -28 -21 25 -22 25
22 27 c18 23 22 24 30 10 5 -9 15 -20 23 -24z m-443 8 c24 -24 24 -25 5 -35
-10 -6 -19 -17 -19 -25 0 -8 -4 -15 -10 -15 -5 0 -10 6 -10 14 0 7 -7 19 -15
26 -13 10 -12 15 3 36 9 13 18 24 19 24 1 0 13 -11 27 -25z m290 0 c20 -20 23
-27 11 -31 -8 -3 -17 -14 -20 -25 -6 -18 -8 -17 -33 8 l-28 27 21 22 c11 12
21 22 22 23 1 1 13 -10 27 -24z m288 2 l24 -23 -28 -28 c-20 -19 -28 -23 -28
-12 0 8 -9 20 -20 26 -19 10 -19 11 3 34 12 13 23 24 24 25 1 1 13 -9 25 -22z
m144 -47 l-21 -26 -21 25 -22 25 21 22 21 22 21 -21 21 -22 -20 -25z m145 47
c16 -21 15 -24 -1 -45 l-18 -22 -24 21 -24 22 20 22 c27 29 28 29 47 2z m145
-47 l-21 -26 -22 26 -22 25 20 21 20 22 23 -22 22 -21 -20 -25z m145 47 c16
-21 15 -24 -7 -52 -18 -22 -24 -26 -24 -13 0 10 -9 22 -20 28 -19 10 -19 11 3
34 28 30 29 30 48 3z m145 -47 l-21 -26 -22 26 -22 25 20 21 20 22 23 -22 22
-21 -20 -25z m145 47 c16 -21 15 -24 -6 -51 -22 -27 -23 -28 -29 -8 -4 11 -13
23 -21 26 -12 4 -11 10 8 30 28 30 29 30 48 3z m145 -47 l-21 -26 -22 26 -22
25 20 21 20 22 23 -22 22 -21 -20 -25z m145 47 c16 -21 15 -24 -6 -51 -22 -27
-23 -28 -29 -8 -4 11 -13 23 -21 26 -12 4 -11 10 8 30 28 30 29 30 48 3z m147
-36 c-10 -7 -18 -20 -18 -28 0 -8 -10 -3 -24 14 l-25 28 20 21 20 22 23 -22
c22 -20 22 -22 4 -35z m139 -10 l-22 -27 -21 25 -20 24 20 22 c21 21 21 21 43
2 l22 -20 -22 -26z m147 44 c20 -20 23 -27 11 -31 -8 -3 -17 -15 -21 -26 -6
-20 -7 -19 -29 8 -21 27 -22 30 -6 51 9 12 17 23 18 23 1 0 13 -11 27 -25z
m143 -44 l-22 -27 -21 25 -20 24 20 22 c21 21 21 21 43 2 l22 -20 -22 -26z
m-2227 -39 c16 -6 15 -10 -11 -34 -28 -25 -30 -25 -40 -7 -5 10 -17 19 -25 19
-11 0 -7 9 13 29 23 23 30 26 36 14 5 -8 17 -17 27 -21z m158 -8 c2 -1 -8 -13
-22 -27 l-26 -26 -25 25 -24 24 22 23 22 23 25 -20 c14 -12 26 -22 28 -22z
m118 -27 l-23 -23 -29 24 c-20 18 -25 27 -15 30 7 2 20 12 28 22 14 16 16 16
39 -6 l23 -24 -23 -23z m155 9 c-9 -5 -19 -15 -24 -22 -5 -10 -13 -7 -32 12
l-24 24 22 23 22 22 26 -25 c23 -22 25 -26 10 -34z m135 -9 l-23 -23 -29 24
c-20 18 -25 27 -15 30 7 2 20 12 28 22 14 16 16 16 39 -6 l23 -24 -23 -23z
m155 9 c-9 -5 -19 -15 -24 -22 -5 -10 -13 -7 -32 12 l-24 24 22 23 22 22 26
-25 c23 -22 25 -26 10 -34z m276 -9 l-22 -22 -22 23 -22 22 22 23 22 22 22
-23 22 -22 -22 -23z m290 0 l-22 -22 -22 23 -22 22 22 23 22 22 22 -23 22 -22
-22 -23z m149 -1 c-23 -22 -25 -22 -39 -6 -8 10 -21 20 -28 24 -12 5 -12 7 0
12 7 4 20 14 28 24 14 16 16 16 39 -6 l23 -24 -23 -24z m141 1 l-22 -22 -22
23 -22 22 22 23 22 22 22 -23 22 -22 -22 -23z m290 0 l-22 -22 -22 23 -22 22
22 23 22 22 22 -23 22 -22 -22 -23z m290 0 l-22 -22 -22 23 -22 22 22 23 22
22 22 -23 22 -22 -22 -23z m-1299 43 l22 -19 -24 -24 c-23 -23 -25 -23 -39 -7
-8 10 -21 20 -28 24 -11 5 -12 7 -1 12 7 3 18 12 25 20 15 17 18 17 45 -6z
m290 0 l22 -19 -23 -23 -24 -24 -26 22 -25 22 21 20 c27 25 27 25 55 2z m580
0 l22 -19 -23 -23 -24 -24 -26 22 -25 22 21 20 c27 25 27 25 55 2z m278 6 c7
-8 19 -16 26 -19 9 -3 5 -11 -12 -25 -30 -26 -29 -26 -59 -2 l-23 20 23 20
c29 24 27 23 45 6z m288 -1 c3 -8 15 -15 26 -15 11 0 20 -4 20 -10 0 -5 -5
-10 -12 -10 -6 0 -19 -7 -29 -16 -17 -15 -20 -15 -43 3 l-25 20 22 21 c25 26
33 27 41 7z m-2394 -55 c0 -5 10 -18 22 -30 12 -11 17 -20 10 -20 -6 0 -17
-11 -24 -24 l-13 -24 -25 28 c-24 26 -25 29 -8 39 10 6 18 18 18 26 0 8 5 15
10 15 6 0 10 -4 10 -10z m156 -71 c-18 -23 -22 -24 -30 -10 -5 9 -15 20 -23
24 -11 7 -9 14 9 35 l23 28 21 -25 22 -25 -22 -27z m158 38 c13 -5 12 -10 -9
-31 l-25 -25 -23 22 -22 22 25 26 c22 24 26 25 32 9 3 -9 13 -20 22 -23z m133
-37 l-22 -26 -21 25 -22 25 21 26 22 26 21 -25 22 -25 -21 -26z m146 3 l-23
-22 -23 23 c-22 22 -23 24 -5 35 10 6 18 18 18 27 0 12 7 9 28 -12 l27 -29
-22 -22z m145 5 c-10 -10 -18 -23 -18 -29 0 -5 -11 2 -24 18 l-24 27 21 26 22
26 21 -25 c20 -24 20 -25 2 -43z m298 29 c10 -6 8 -13 -9 -30 -22 -23 -22 -23
-44 -4 l-22 20 22 27 c19 23 23 25 31 11 5 -9 15 -19 22 -24z m131 15 c20 -27
20 -29 2 -50 l-18 -22 -24 23 c-22 23 -23 25 -5 36 10 6 18 18 18 26 0 21 3
19 27 -13z m159 -15 c10 -6 8 -13 -9 -30 -22 -23 -22 -23 -44 -4 l-22 20 22
27 c19 23 23 25 31 11 5 -9 15 -19 22 -24z m131 15 c20 -27 20 -29 2 -50 l-18
-22 -25 25 c-24 24 -24 25 -5 35 10 6 19 17 19 25 0 21 3 19 27 -13z m159 -15
c10 -6 8 -13 -9 -30 -22 -23 -22 -23 -44 -4 l-22 20 22 27 c19 23 23 25 31 11
5 -9 15 -19 22 -24z m131 15 c20 -27 20 -29 2 -50 l-18 -22 -24 23 c-22 23
-23 25 -5 36 10 6 18 18 18 26 0 21 3 19 27 -13z m292 -48 l-20 -22 -23 22
c-21 20 -21 22 -4 39 10 10 18 22 18 28 0 6 11 -3 24 -18 l25 -28 -20 -21z
m290 0 l-20 -22 -23 22 c-21 20 -21 22 -4 39 10 10 18 22 18 28 0 6 11 -3 24
-18 l25 -28 -20 -21z m-1448 43 c16 -21 15 -24 -1 -45 l-19 -22 -23 22 -23 23
20 21 c25 28 27 28 46 1z m1015 -42 l-21 -21 -23 20 -22 20 21 22 20 21 23
-20 22 -20 -20 -22z m286 43 l23 -23 -22 -21 -21 -21 -20 20 c-20 19 -20 21
-4 43 9 13 18 24 19 24 1 0 12 -10 25 -22z m-2075 -88 c11 0 7 -8 -13 -27
l-29 -28 -26 25 -25 24 25 22 c25 21 26 21 39 3 7 -10 20 -19 29 -19z m125 17
l23 -23 -24 -25 -25 -25 -21 24 -21 25 20 22 c12 13 22 23 23 24 1 1 13 -9 25
-22z m165 -17 c11 0 7 -8 -13 -27 l-29 -28 -26 25 -25 24 25 22 c25 21 26 21
39 3 7 -10 20 -19 29 -19z m124 -30 l-26 -25 -26 25 c-25 23 -26 25 -8 32 11
4 22 14 25 23 5 12 10 11 33 -8 l28 -22 -26 -25z m144 2 l-22 -23 -25 22 -25
22 25 22 25 21 22 -20 22 -21 -22 -23z m147 2 l-27 -22 -26 22 c-24 19 -24 22
-7 28 10 4 21 14 24 23 5 12 11 11 34 -8 l28 -22 -26 -21z m142 -2 l-22 -22
-24 21 -25 22 25 22 25 21 21 -20 22 -21 -22 -23z m169 28 c7 0 -1 -11 -18
-24 l-30 -24 -21 20 -22 19 22 23 c20 21 22 21 39 4 10 -10 23 -18 30 -18z
m121 -28 l-22 -22 -24 21 -25 22 25 22 25 21 21 -20 22 -21 -22 -23z m169 28
c7 0 -1 -11 -18 -24 l-30 -24 -21 20 -22 19 22 23 c20 21 22 21 39 4 10 -10
23 -18 30 -18z m120 -27 l-23 -22 -23 21 -24 21 25 22 25 21 21 -20 22 -21
-23 -22z m160 31 c16 -9 15 -12 -11 -31 l-28 -20 -29 23 c-23 18 -26 24 -13
24 10 0 23 9 30 20 11 16 15 18 23 7 6 -7 18 -18 28 -23z m131 -32 l-22 -22
-24 21 -25 22 25 22 25 21 21 -20 22 -21 -22 -23z m162 28 c10 0 6 -8 -13 -24
l-27 -24 -28 21 c-26 20 -27 22 -10 28 11 4 22 15 26 25 6 16 8 16 22 -4 8
-12 22 -22 30 -22z m128 -27 l-24 -22 -23 21 -23 21 20 21 21 22 26 -21 26
-20 -23 -22z m143 0 l-19 -22 -29 22 c-27 19 -28 22 -12 31 10 5 21 15 26 22
6 10 13 8 30 -9 23 -22 23 -22 4 -44z m171 27 c7 0 12 -4 12 -10 0 -5 -9 -10
-20 -10 -10 0 -23 -8 -29 -17 -8 -15 -11 -15 -33 6 l-25 24 21 22 c20 21 22
21 42 3 11 -10 26 -18 32 -18z m-2414 -56 l22 -27 -24 -24 c-13 -13 -25 -23
-26 -21 -1 2 -9 13 -20 25 -17 21 -17 22 1 47 10 14 19 26 21 26 2 0 13 -12
26 -26z m146 -44 c-11 -11 -20 -26 -20 -32 0 -7 -6 -4 -12 7 -6 11 -17 25 -25
32 -12 9 -11 15 9 35 l23 24 22 -23 c22 -23 22 -24 3 -43z m144 44 l22 -27
-24 -24 -23 -23 -19 22 c-21 25 -25 38 -11 38 5 0 13 9 16 20 8 26 11 25 39
-6z m143 -48 l-21 -24 -23 24 -22 24 22 23 22 22 22 -22 22 -23 -22 -24z m147
1 c-10 -12 -19 -23 -20 -25 -1 -2 -13 8 -26 21 l-24 24 20 25 21 25 24 -24
c24 -23 24 -24 5 -46z m142 -1 l-21 -22 -22 23 -22 23 22 23 22 22 21 -24 20
-24 -20 -21z m143 -2 l-22 -23 -19 24 c-18 23 -18 26 -4 41 9 8 16 20 16 26 0
6 12 -2 26 -17 l25 -27 -22 -24z m147 2 l-21 -22 -22 23 -22 23 22 23 22 22
21 -24 20 -24 -20 -21z m144 -1 l-21 -23 -23 22 -22 21 21 26 20 26 23 -25 23
-24 -21 -23z m146 1 l-21 -22 -20 21 -21 20 20 25 21 26 21 -25 20 -24 -20
-21z m144 -1 l-21 -23 -23 22 -22 21 21 26 20 26 23 -25 23 -24 -21 -23z m146
1 l-21 -22 -22 23 -22 23 22 23 22 22 21 -24 20 -24 -20 -21z m144 -1 l-21
-23 -23 22 -22 21 21 26 20 26 23 -25 23 -24 -21 -23z m146 1 l-21 -22 -20 21
-21 20 20 25 21 26 21 -25 20 -24 -20 -21z m141 0 l-20 -22 -21 20 -22 21 20
25 21 26 20 -24 c21 -24 21 -25 2 -46z m145 -1 l-19 -24 -22 23 -22 23 23 25
22 26 19 -24 c18 -23 18 -25 -1 -49z m145 1 l-20 -22 -21 20 -22 21 20 25 21
26 20 -24 c21 -24 21 -25 2 -46z m-2240 -75 c-24 -21 -29 -22 -40 -9 -7 9 -21
20 -32 26 -15 9 -16 11 -4 12 9 0 24 9 34 20 17 19 18 19 44 -3 l27 -22 -29
-24z m145 48 l24 -22 -23 -23 c-23 -23 -24 -23 -43 -4 -11 11 -26 20 -32 20
-7 1 -1 8 15 16 15 8 27 19 27 24 0 14 6 12 32 -11z m134 6 c3 -8 14 -17 25
-20 17 -6 16 -8 -8 -30 l-27 -23 -26 21 -25 21 20 22 c24 26 34 29 41 9z m156
-52 c-22 -22 -23 -22 -42 -3 -11 11 -25 20 -31 20 -5 0 2 11 18 24 l27 24 26
-21 25 -21 -23 -23z m128 57 c0 -5 12 -16 27 -23 26 -14 26 -15 6 -21 -12 -4
-24 -14 -27 -22 -5 -13 -10 -12 -34 7 l-27 23 20 22 c22 24 35 29 35 14z m161
-56 c-24 -20 -25 -20 -43 -2 -10 10 -24 18 -30 18 -7 0 -4 6 7 12 11 6 24 17
28 25 7 11 14 9 35 -9 l28 -23 -25 -21z m146 1 l-22 -21 -25 20 -26 21 24 20
25 21 22 -20 23 -20 -21 -21z m144 -1 l-25 -22 -27 22 c-23 18 -24 22 -10 30
9 5 20 15 24 23 7 11 14 9 35 -9 l28 -23 -25 -21z m141 44 l23 -23 -22 -22
-23 -22 -22 22 -23 22 20 21 c11 12 21 22 22 23 1 1 12 -9 25 -21z m149 -44
l-25 -22 -26 21 -26 22 25 21 25 22 26 -21 26 -22 -25 -21z m141 45 l24 -22
-23 -23 -23 -23 -22 22 -23 22 20 21 c11 12 21 22 22 23 1 1 12 -9 25 -20z
m149 -45 l-25 -22 -27 22 c-23 18 -24 22 -10 30 9 5 20 15 24 23 7 11 14 9 35
-9 l28 -23 -25 -21z m141 45 l24 -22 -23 -23 -23 -23 -22 22 -23 22 20 21 c11
12 21 22 22 23 1 1 12 -9 25 -20z m169 -19 c6 0 -2 -11 -18 -24 l-27 -24 -26
21 -26 22 26 21 c25 22 25 22 43 3 10 -10 22 -19 28 -19z m121 18 l23 -23 -22
-22 -23 -22 -22 22 -23 22 20 21 c11 12 21 22 22 23 1 1 12 -9 25 -21z m169
-18 c6 0 -2 -11 -18 -24 l-27 -24 -26 21 -26 22 26 21 c25 22 25 22 43 3 10
-10 22 -19 28 -19z m113 25 c3 -9 16 -20 28 -25 17 -6 18 -9 6 -9 -9 -1 -23
-10 -31 -22 l-15 -20 -23 23 -24 23 20 21 c25 27 31 28 39 9z m-2220 -97 c7
-5 5 -12 -5 -20 -9 -7 -21 -22 -27 -33 -10 -17 -11 -17 -12 -3 0 9 -9 23 -21
32 l-21 14 21 21 c12 12 21 27 21 33 0 7 8 1 17 -12 9 -14 22 -28 27 -32z
m-161 18 l23 -23 -24 -29 c-16 -19 -27 -24 -30 -16 -2 7 -10 19 -18 27 -13 13
-13 18 3 40 10 13 19 25 20 25 1 0 13 -11 26 -24z m290 0 l23 -23 -21 -25 -21
-24 -24 25 -25 26 20 21 c11 12 21 22 22 23 1 1 13 -10 26 -23z m144 -49 l-22
-22 -22 23 -22 22 22 23 22 23 22 -23 22 -23 -22 -23z m146 49 l23 -23 -22
-27 c-26 -30 -34 -32 -34 -11 0 7 -7 18 -16 23 -16 9 -15 12 2 35 10 15 20 27
21 27 1 0 13 -11 26 -24z m143 -46 l-21 -26 -21 25 -20 24 20 21 21 22 20 -21
21 -20 -20 -25z m147 45 c16 -23 17 -27 3 -41 -9 -8 -16 -21 -16 -27 0 -7 -11
1 -25 16 -25 26 -25 28 -8 52 22 30 24 30 46 0z m143 -45 l-21 -26 -21 25 -20
24 20 21 21 21 20 -20 21 -20 -20 -25z m143 -2 l-22 -25 -22 25 -21 25 20 22
21 22 23 -22 23 -22 -22 -25z m146 1 l-20 -26 -22 23 -22 24 21 23 21 23 21
-20 22 -21 -21 -26z m143 -2 l-21 -24 -22 25 -21 25 20 22 21 21 22 -22 23
-23 -22 -24z m147 2 l-20 -26 -22 23 -22 24 21 23 21 23 21 -20 22 -21 -21
-26z m143 -2 l-21 -24 -22 25 -21 25 20 22 21 21 22 -22 23 -23 -22 -24z m148
3 l-21 -26 -20 24 c-21 24 -21 25 -2 46 l20 22 21 -20 22 -21 -20 -25z m142
-3 l-21 -24 -22 25 -21 25 20 22 21 21 22 -22 23 -23 -22 -24z m147 2 l-20
-26 -22 23 -22 24 21 23 21 23 21 -20 22 -21 -21 -26z m144 -1 l-22 -25 -22
25 -21 25 20 21 21 22 23 -22 22 -22 -21 -24z m-2228 -62 c-9 -5 -20 -16 -24
-23 -7 -12 -12 -11 -28 6 -11 12 -24 21 -30 21 -6 0 2 12 17 28 l27 27 27 -25
c25 -22 26 -26 11 -34z m132 -12 l-23 -23 -25 25 -24 24 22 23 22 22 25 -24
26 -25 -23 -22z m156 14 c-11 -4 -22 -15 -25 -23 -6 -14 -9 -13 -26 4 -10 12
-23 21 -29 21 -6 0 2 12 17 28 l27 27 27 -25 c26 -23 27 -25 9 -32z m134 30
l24 -21 -26 -23 c-25 -21 -26 -21 -39 -3 -7 10 -20 19 -28 19 -10 0 -5 9 13
25 15 13 29 25 30 25 1 0 12 -10 26 -22z m143 -42 c-20 -21 -22 -21 -39 -4
-10 10 -23 18 -30 18 -7 0 2 11 18 24 l30 24 21 -20 22 -19 -22 -23z m147 42
l24 -21 -25 -22 -25 -21 -22 20 -21 21 20 23 c11 12 21 22 22 22 1 0 13 -10
27 -22z m143 0 l20 -23 -23 -22 c-19 -19 -25 -20 -29 -8 -3 8 -15 17 -26 20
-19 7 -19 7 4 30 29 29 31 29 54 3z m147 -42 l-26 -22 -22 20 c-21 21 -21 21
-2 43 l19 22 28 -21 28 -20 -25 -22z m139 42 l24 -23 -22 -21 -21 -20 -25 21
-25 22 21 20 c11 11 22 21 23 22 1 0 12 -9 25 -21z m159 -32 c-9 -5 -19 -15
-24 -22 -5 -10 -14 -6 -32 12 l-25 25 22 19 c22 17 23 17 49 -4 23 -18 24 -22
10 -30z m131 32 l24 -23 -22 -21 -21 -20 -25 21 -25 22 21 20 c11 11 22 21 23
22 1 0 12 -9 25 -21z m151 -42 l-26 -22 -24 24 -23 23 22 18 c21 18 23 18 49
-1 l27 -20 -25 -22z m139 42 l24 -23 -22 -21 -21 -20 -25 21 -25 22 21 20 c11
11 22 21 23 22 1 0 12 -9 25 -21z m161 -32 c-10 -5 -21 -15 -26 -22 -5 -10
-14 -6 -32 12 l-25 25 22 18 c21 18 23 18 50 -2 26 -19 27 -22 11 -31z m129
32 l24 -23 -22 -21 -21 -20 -25 21 -25 22 21 20 c11 11 22 21 23 22 1 0 12 -9
25 -21z m161 -32 c-10 -5 -21 -15 -26 -22 -6 -10 -13 -8 -30 9 -23 22 -23 22
-4 44 l19 22 29 -22 c27 -19 28 -22 12 -31z m121 39 c3 -8 12 -15 21 -15 20 0
19 -5 -9 -33 l-23 -23 -25 21 -25 22 21 20 c26 26 32 27 40 8z m-2367 -88 c11
-7 9 -14 -9 -36 l-23 -29 -21 26 -21 26 20 28 c19 26 22 27 31 11 5 -10 15
-22 23 -26z m133 -38 c-22 -24 -26 -25 -34 -10 -5 9 -16 20 -23 24 -12 7 -11
12 6 28 12 11 21 25 21 31 0 6 12 -2 28 -18 l27 -29 -25 -26z m287 1 l-22 -26
-21 26 c-22 25 -22 25 -3 43 10 10 19 22 19 28 0 6 11 -2 24 -18 l24 -27 -21
-26z m290 0 l-22 -26 -21 26 c-22 25 -22 25 -3 43 10 10 19 22 19 28 0 6 11
-2 24 -18 l24 -27 -21 -26z m590 37 c11 -7 9 -14 -9 -35 l-23 -28 -21 26 c-22
25 -22 25 -3 43 10 10 19 23 19 30 0 7 6 3 12 -8 6 -11 17 -24 25 -28z m-1025
-35 l-23 -22 -19 22 c-18 22 -18 24 1 44 l20 22 22 -22 22 -21 -23 -23z m290
46 l23 -23 -22 -22 -23 -22 -22 22 -23 22 20 21 c11 12 21 22 22 23 1 1 12 -9
25 -21z m290 0 l23 -23 -23 -23 -23 -23 -18 23 c-17 21 -18 24 -2 45 9 12 17
23 18 23 1 0 12 -10 25 -22z m145 -48 l-22 -26 -21 25 -22 25 21 22 21 22 22
-21 22 -21 -21 -26z m145 48 l23 -23 -22 -22 -23 -22 -22 22 -23 22 20 21 c11
12 21 22 22 23 1 1 12 -9 25 -21z m290 0 l23 -23 -22 -22 -23 -22 -22 22 -23
22 20 21 c11 12 21 22 22 23 1 1 12 -9 25 -21z m145 -48 l-22 -26 -21 25 -22
25 21 22 21 22 22 -21 22 -21 -21 -26z m145 48 l23 -23 -22 -22 -23 -22 -22
22 -23 22 20 21 c11 12 21 22 22 23 1 1 12 -9 25 -21z m147 -41 c-10 -10 -19
-22 -19 -28 0 -6 -11 2 -24 18 l-24 27 21 22 21 22 22 -21 c22 -21 22 -22 3
-40z m144 -1 c-10 -12 -18 -22 -19 -24 -1 -2 -12 7 -25 20 l-24 23 20 21 c20
20 20 20 42 0 22 -19 22 -20 6 -40z m142 -2 l-20 -20 -23 20 -22 20 21 22 20
22 23 -22 22 -21 -21 -21z m148 2 c-10 -12 -18 -22 -19 -24 -1 -2 -12 7 -25
20 l-24 23 20 21 c20 20 20 20 42 0 22 -19 22 -20 6 -40z m-2226 -46 c11 0 7
-8 -13 -27 l-29 -28 -26 25 c-25 23 -26 25 -8 32 11 4 22 15 25 23 6 14 9 13
21 -5 8 -11 21 -20 30 -20z m128 14 l25 -25 -22 -19 c-28 -24 -28 -24 -56 0
l-23 19 23 24 c13 14 24 25 25 26 1 1 14 -11 28 -25z m142 -46 l-22 -23 -29
28 c-20 19 -24 27 -13 27 9 0 21 9 27 19 10 19 11 19 35 -5 l24 -24 -22 -22z
m172 20 c1 -5 -6 -8 -14 -8 -9 0 -18 -7 -21 -15 -8 -19 -14 -19 -42 5 l-23 19
23 23 23 24 27 -21 c15 -11 27 -23 27 -27z m118 -20 l-22 -23 -28 27 c-26 25
-27 27 -8 33 10 3 22 12 25 20 4 12 11 10 30 -10 l25 -25 -22 -22z m145 4
c-23 -22 -25 -23 -46 -5 -11 10 -22 19 -24 19 -2 1 7 13 20 26 l23 24 26 -21
26 -20 -25 -23z m144 -5 l-22 -23 -28 28 c-19 20 -23 28 -12 28 8 0 20 9 26
19 10 19 11 19 35 -5 l24 -24 -23 -23z m165 33 c6 0 -2 -13 -17 -28 l-28 -28
-22 23 -23 23 22 23 c21 22 23 22 40 5 10 -10 22 -18 28 -18z m125 -33 l-22
-23 -28 28 c-19 20 -23 28 -12 28 8 0 20 9 26 19 10 19 11 19 35 -5 l24 -24
-23 -23z m161 33 c9 0 5 -10 -13 -28 l-28 -28 -22 23 -23 23 22 23 c21 23 23
23 36 5 7 -10 20 -18 28 -18z m129 -33 l-22 -23 -28 28 c-19 20 -23 28 -12 28
8 0 20 9 26 19 10 19 11 19 35 -5 l24 -24 -23 -23z m173 21 c1 -5 -6 -8 -14
-8 -8 0 -19 -9 -25 -19 -10 -19 -11 -19 -35 5 l-24 24 22 23 22 23 27 -21 c15
-11 27 -23 27 -27z m117 -21 l-22 -22 -25 24 -25 25 24 21 25 21 23 -23 23
-23 -23 -23z m161 33 c11 0 6 -9 -13 -27 l-29 -28 -22 23 -22 22 22 23 c21 23
23 23 36 5 7 -10 20 -18 28 -18z m128 -29 l-22 -23 -26 22 -25 22 25 22 26 22
22 -20 22 -21 -22 -24z m142 -4 l-22 -22 -22 23 -22 22 22 23 22 22 22 -23 22
-22 -22 -23z m-2099 -73 l-19 -22 -23 22 -22 21 21 26 20 27 22 -27 c21 -26
21 -26 1 -47z m158 33 c10 -6 8 -13 -9 -30 -22 -23 -22 -23 -44 -4 l-22 19 22
29 c19 27 22 28 31 12 5 -10 15 -21 22 -26z m131 -31 l-20 -22 -21 20 -22 21
20 25 21 26 20 -24 c21 -24 21 -25 2 -46z m157 31 c13 -5 12 -10 -10 -32 l-25
-25 -18 22 c-18 21 -18 23 2 50 20 26 22 27 28 10 4 -11 14 -22 23 -25z m135
-30 c-10 -10 -19 -23 -19 -30 -1 -7 -8 0 -16 16 -8 15 -19 27 -25 27 -6 0 0
13 13 28 l23 28 21 -26 c22 -25 22 -25 3 -43z m287 -2 l-20 -23 -21 21 -21 22
20 25 21 26 20 -24 21 -25 -20 -22z m292 3 c-10 -10 -18 -24 -18 -30 -1 -7 -8
-1 -16 15 -8 15 -19 27 -25 27 -6 0 0 13 13 28 l23 28 21 -25 c20 -24 20 -25
2 -43z m132 57 c0 -8 9 -19 21 -26 l21 -11 -21 -14 c-12 -9 -21 -22 -21 -30 0
-8 -4 -14 -10 -14 -5 0 -10 6 -10 14 0 8 -9 21 -21 30 l-21 14 21 11 c12 7 21
18 21 26 0 8 5 15 10 15 6 0 10 -7 10 -15z m159 -58 c-10 -10 -19 -23 -19 -30
-1 -7 -8 0 -16 16 -8 15 -19 27 -25 27 -6 0 0 13 13 28 l23 28 21 -26 c22 -25
22 -25 3 -43z m136 54 c3 -11 12 -22 20 -25 12 -4 10 -11 -10 -30 l-25 -25
-25 25 c-20 19 -22 26 -10 30 8 3 17 14 20 25 4 10 10 19 15 19 5 0 11 -9 15
-19z m151 -55 c-21 -21 -21 -21 -43 -2 l-21 20 21 26 22 26 21 -25 20 -24 -20
-21z m141 46 c20 -27 20 -29 2 -50 l-18 -22 -23 23 -24 24 20 26 c12 14 21 26
22 26 0 1 10 -12 21 -27z m149 -47 c-21 -21 -21 -21 -43 -2 l-22 20 22 26 22
27 21 -25 20 -24 -20 -22z m142 -1 l-19 -22 -23 22 c-22 20 -22 22 -4 35 10 7
18 21 18 30 0 11 8 7 24 -14 l24 -30 -20 -21z m-1446 45 l24 -22 -24 -24 c-13
-13 -25 -23 -26 -21 -1 2 -9 13 -19 25 -18 21 -18 22 0 41 10 11 19 21 20 21
1 1 12 -9 25 -20z m290 0 l24 -22 -23 -23 -23 -23 -23 23 -24 23 21 20 c12 12
22 21 23 22 1 0 12 -9 25 -20z"/>
</g>
</svg>
